<svg width="42" height="42" viewBox="0 0 42 42" fill="none" xmlns="http://www.w3.org/2000/svg">
<path fill-rule="evenodd" clip-rule="evenodd" d="M1 35.2857V6.71429C1 3.55837 3.55837 1 6.71429 1H35.2857C38.4416 1 41 3.55837 41 6.71429V35.2857C41 38.4416 38.4416 41 35.2857 41H6.71429C3.55837 41 1 38.4416 1 35.2857Z" stroke="white" stroke-linecap="round" stroke-linejoin="round"/>
<path fill-rule="evenodd" clip-rule="evenodd" d="M35.2857 35.2857V6.71429C35.2857 3.55837 32.7273 1 29.5714 1H35.2857C38.1428 1 41 3.55837 41 6.71429V35.2857C41 38.4416 38.1428 41 35.2857 41H29.5714C32.7273 41 35.2857 38.4416 35.2857 35.2857Z" fill="white" stroke="white" stroke-linecap="round" stroke-linejoin="round"/>
<path d="M21 29.5714L29.5714 21L21 12.4286" stroke="white" stroke-linecap="round" stroke-linejoin="round"/>
<path d="M29.5714 21H6.71423" stroke="white" stroke-linecap="round" stroke-linejoin="round"/>
</svg>
