<svg width="14" height="15" viewBox="0 0 14 15" fill="none" xmlns="http://www.w3.org/2000/svg">
<path fill-rule="evenodd" clip-rule="evenodd" d="M14 7.11947C14 9.00767 13.2625 10.8185 11.9497 12.1537C10.637 13.4889 8.85652 14.2389 7 14.2389C5.14348 14.2389 3.36301 13.4889 2.05025 12.1537C0.737498 10.8185 0 9.00767 0 7.11947C0 5.23127 0.737498 3.42041 2.05025 2.08525C3.36301 0.750085 5.14348 0 7 0C8.85652 0 10.637 0.750085 11.9497 2.08525C13.2625 3.42041 14 5.23127 14 7.11947ZM10.5262 4.42297C10.4637 4.35963 10.3893 4.30975 10.3074 4.27632C10.2256 4.2429 10.1379 4.22662 10.0497 4.22844C9.96144 4.23027 9.87449 4.25017 9.79401 4.28696C9.71352 4.32375 9.64116 4.37667 9.58125 4.44255L6.54238 8.38051L4.711 6.51699C4.5866 6.39909 4.42206 6.3349 4.25204 6.33795C4.08203 6.34101 3.91982 6.41105 3.79958 6.53334C3.67934 6.65563 3.61047 6.82061 3.60747 6.99353C3.60447 7.16644 3.66758 7.33379 3.7835 7.46032L6.09875 9.81597C6.16112 9.87929 6.23539 9.92919 6.31714 9.96268C6.39888 9.99617 6.48642 10.0126 6.57453 10.0109C6.66264 10.0093 6.74952 9.98956 6.82998 9.95301C6.91045 9.91646 6.98285 9.8638 7.04287 9.79817L10.5359 5.3574C10.655 5.23148 10.7207 5.06308 10.7191 4.88837C10.7175 4.71366 10.6485 4.54657 10.5271 4.42297H10.5262Z" fill="white"/>
</svg>
